<?xml version="1.0" standalone="no"?><!DOCTYPE svg PUBLIC "-//W3C//DTD SVG 1.1//EN" "http://www.w3.org/Graphics/SVG/1.1/DTD/svg11.dtd"><svg t="1713512491052" class="icon" viewBox="0 0 1024 1024" version="1.1" xmlns="http://www.w3.org/2000/svg" p-id="4480" xmlns:xlink="http://www.w3.org/1999/xlink" width="200" height="200"><path d="M441.344 926.72l-32.3584-24.9856-263.5776 0.1024c-11.3664 0-24.064-1.4336-32.1536-11.776-4.1984-5.3248-6.9632-22.2208-6.8608-33.8944l0-0.2048-0.1024-754.7904c0.2048-2.6624 2.3552-20.2752 12.5952-30.6176C133.5296 55.9104 144.384 53.6576 146.432 53.3504l407.3472 0 0 109.056c-0.1024 5.632 0.2048 42.7008 21.504 67.072 19.5584 22.3232 50.4832 33.9968 53.9648 35.2256l4.4032 1.6384 144.1792 0.1024 0 130.048c15.1552 11.776 30.3104 23.4496 45.568 35.2256 2.6624 2.6624 5.2224 5.4272 7.7824 8.0896L831.1808 205.5168 598.3232 0 145.5104 0c-5.2224 0-32.9728 1.536-64.2048 32.8704-25.6 25.6-27.9552 62.0544-28.16 66.1504l0 0.6144 0 756.0192c-0.1024 7.68 0.512 44.544 18.1248 67.1744 10.9568 14.0288 25.6 23.6544 43.4176 28.672 13.5168 3.6864 25.1904 3.6864 30.8224 3.6864l359.5264-0.1024C483.1232 948.1216 461.9264 938.7008 441.344 926.72L441.344 926.72zM607.0272 78.848l152.064 134.2464L643.4816 212.992c-7.68-3.3792-20.7872-10.24-28.16-18.6368-5.8368-6.656-8.3968-22.528-8.2944-31.232L607.0272 78.848 607.0272 78.848z" fill="#8a8a8a" p-id="4481"></path><path d="M958.5664 951.7056 827.392 820.6336c34.0992-46.2848 54.272-103.5264 54.272-165.376 0-154.112-125.3376-279.4496-279.4496-279.4496S322.7648 501.1456 322.7648 655.2576c0 154.112 125.3376 279.4496 279.4496 279.4496 61.8496 0 118.9888-20.1728 165.376-54.272l131.1744 131.1744c8.2944 8.2944 19.0464 12.3904 29.9008 12.3904 10.8544 0 21.7088-4.096 29.9008-12.3904C975.1552 995.0208 975.1552 968.2944 958.5664 951.7056L958.5664 951.7056zM391.5776 655.2576c0-116.1216 94.5152-210.6368 210.6368-210.6368 116.1216 0 210.7392 94.5152 210.7392 210.6368s-94.5152 210.6368-210.7392 210.6368S391.5776 771.3792 391.5776 655.2576L391.5776 655.2576z" fill="#8a8a8a" p-id="4482"></path></svg>