<?xml version="1.0" standalone="no"?><!DOCTYPE svg PUBLIC "-//W3C//DTD SVG 1.1//EN" "http://www.w3.org/Graphics/SVG/1.1/DTD/svg11.dtd"><svg t="1710068524833" class="icon" viewBox="0 0 1024 1024" version="1.1" xmlns="http://www.w3.org/2000/svg" p-id="4295" xmlns:xlink="http://www.w3.org/1999/xlink" width="200" height="200"><path d="M232.628706 105.773176l-7.228235 0.240942c-74.089412 5.421176-113.543529 93.063529-66.56 153.118117l208.835764 266.420706v290.635294a36.141176 36.141176 0 0 0 21.38353 33.008941l216.365176 96.737883 4.517647 1.626353a36.141176 36.141176 0 0 0 46.381177-34.635294V525.552941l208.775529-266.420706c48.609882-61.921882 4.939294-153.359059-73.788235-153.359059H232.628706z m0 72.282353h558.682353c18.130824 0 28.491294 21.684706 16.865882 36.502589L591.751529 490.797176l-2.710588 3.97553a36.141176 36.141176 0 0 0-4.939294 18.311529v344.064l-144.082823-64.391529V513.084235a36.141176 36.141176 0 0 0-7.710118-22.287059L215.762824 214.558118c-11.565176-14.757647-1.204706-36.502588 16.865882-36.502589z" fill="#2c2c2c" p-id="4296"></path></svg>