<?xml version="1.0" standalone="no"?><!DOCTYPE svg PUBLIC "-//W3C//DTD SVG 1.1//EN" "http://www.w3.org/Graphics/SVG/1.1/DTD/svg11.dtd"><svg t="1708925112177" class="icon" viewBox="0 0 1024 1024" version="1.1" xmlns="http://www.w3.org/2000/svg" p-id="5167" xmlns:xlink="http://www.w3.org/1999/xlink" width="200" height="200"><path d="M873.6 410.72l-22.56-7.2a356 356 0 0 0-678.08 0l-22.56 7.2a26.24 26.24 0 0 0-18.24 25.12v224A26.4 26.4 0 0 0 144 681.12a26.08 26.08 0 0 0 23.68 3.68l28.96-9.12a356 356 0 0 0 632.32 0l28.96 9.12a24.64 24.64 0 0 0 8.32 1.44 25.76 25.76 0 0 0 16-5.12 26.4 26.4 0 0 0 11.04-21.28v-224a26.24 26.24 0 0 0-19.68-25.12zM839.04 624A1085.76 1085.76 0 0 0 512 567.52 1085.76 1085.76 0 0 0 184.96 624V454.88c245.12-78.56 408.96-78.56 654.08 0z m-52.64-240c-30.08-8.32-59.2-15.2-87.68-20.96a334.08 334.08 0 0 1 36.16-56.32A307.36 307.36 0 0 1 786.4 384z m-90.72-112a376 376 0 0 0-51.2 82.4 861.76 861.76 0 0 0-106.08-9.44v-134.88A300.8 300.8 0 0 1 695.68 272z m-210.08-61.92v134.24a861.76 861.76 0 0 0-106.08 9.44 376 376 0 0 0-51.2-81.76 300.8 300.8 0 0 1 157.28-61.92z m-196.48 96.96a334.08 334.08 0 0 1 36.16 56.32c-28.48 5.76-57.6 12.64-87.68 20.96a307.36 307.36 0 0 1 51.52-77.28z m-40.96 353.12q45.12-12.8 87.36-21.28a331.2 331.2 0 0 1-46.4 78.08 305.12 305.12 0 0 1-40.96-56.8z m80 92.48a381.92 381.92 0 0 0 67.36-124.16 829.12 829.12 0 0 1 89.92-7.84v193.28A300.8 300.8 0 0 1 328.32 752z m210.08 61.28V620.64a829.12 829.12 0 0 1 89.92 7.84A381.92 381.92 0 0 0 695.68 752a300.8 300.8 0 0 1-157.28 61.92z m196.48-96.96A331.2 331.2 0 0 1 688 638.88q42.24 8.64 87.36 21.28a305.12 305.12 0 0 1-40.48 56.8z" fill="#231815" p-id="5168"></path><path d="M314.24 438.4c-25.12 5.44-37.28 8.64-62.08 16a18.24 18.24 0 0 0-12.16 17.6 13.6 13.6 0 0 0 4.64 11.52 10.88 10.88 0 0 0 10.08 1.28l12.96-3.68v80a13.76 13.76 0 0 0 4.96 10.88 11.2 11.2 0 0 0 7.04 2.08 22.24 22.24 0 0 0 5.28 0 19.2 19.2 0 0 0 16-18.88v-82.56l16-3.52a17.6 17.6 0 0 0 13.92-17.92 13.12 13.12 0 0 0-4.16-10.24 14.08 14.08 0 0 0-12.48-2.56zM429.12 517.44l-26.72 2.72v-17.44c8.8-1.12 14.4-1.76 24.32-2.56a17.44 17.44 0 0 0 16-16.8 14.08 14.08 0 0 0-4.32-10.56 16.96 16.96 0 0 0-12.64-4.32c-9.44 0.96-15.04 1.44-23.36 2.56v-16c9.6-1.12 16-1.76 26.4-2.72a16 16 0 0 0 15.2-16.8 13.44 13.44 0 0 0-4-10.08 16 16 0 0 0-12.16-4c-17.28 1.6-25.6 2.4-42.56 4.8a17.92 17.92 0 0 0-16 20.16v92.8a13.76 13.76 0 0 0 14.72 14.56h2.24c17.6-2.4 26.08-3.36 43.68-4.96a16 16 0 0 0 16-16 13.76 13.76 0 0 0-4.32-10.72 14.56 14.56 0 0 0-12.48-4.64zM483.2 524v1.12a26.08 26.08 0 0 0-0.8 5.76 14.08 14.08 0 0 0 16 14.08 16.96 16.96 0 0 0 16-10.72l4.32-12.96c16 0 25.12 0 41.12 1.44l4 13.6a17.44 17.44 0 0 0 16 11.2h2.08A14.24 14.24 0 0 0 592 544a12.8 12.8 0 0 0 4.16-9.44 27.52 27.52 0 0 0-1.6-8.16c-13.28-37.6-19.84-56.32-33.28-93.76A24.32 24.32 0 0 0 539.52 416a22.08 22.08 0 0 0-21.6 16c-13.76 36.32-20.8 54.72-34.56 91.52z m45.92-33.44l10.4-32 10.4 32c-7.52 0.16-13.12 0-20.8 0zM650.56 555.68a16 16 0 0 0 12.8-1.92 13.28 13.28 0 0 0 4.96-9.76l7.2-48c5.12 18.88 8.96 33.28 16 56.64a20.48 20.48 0 0 0 16 13.76 14.08 14.08 0 0 0 18.4-8.16l14.72-48 7.36 53.28a19.68 19.68 0 0 0 16 17.6 26.08 26.08 0 0 0 5.76 0.8 12 12 0 0 0 6.88-2.08 12.64 12.64 0 0 0 4.48-10.24 10.72 10.72 0 0 0 0-3.84l-14.88-98.24a28 28 0 0 0-19.68-20.48 16.96 16.96 0 0 0-20.96 11.04l-16 49.92c-5.76-20.96-9.6-34.72-16-58.88A26.72 26.72 0 0 0 672 430.4a17.76 17.76 0 0 0-20.96 13.6l-9.76 56.48-6.24 35.36v3.2a17.12 17.12 0 0 0 15.52 16.64z" fill="#231815" p-id="5169"></path></svg>