<svg id="SvgjsSvg1006" width="1437.6190476190477" height="1133.0000114440918" xmlns="http://www.w3.org/2000/svg" version="1.1" xmlns:xlink="http://www.w3.org/1999/xlink" xmlns:svgjs="http://svgjs.com/svgjs"><defs id="SvgjsDefs1007"><pattern patternUnits="userSpaceOnUse" id="pattern_mark_0" width="300" height="300"><text x="150" y="100" fill="rgba(229,229,229,0.8)" font-size="18" transform="rotate(-45, 150, 150)" style="dominant-baseline: middle; text-anchor: middle;"></text></pattern><pattern patternUnits="userSpaceOnUse" id="pattern_mark_1" width="300" height="300"><text x="150" y="200" fill="rgba(229,229,229,0.8)" font-size="18" transform="rotate(-45, 150, 150)" style="dominant-baseline: middle; text-anchor: middle;"></text></pattern><marker id="SvgjsMarker1098" markerWidth="14" markerHeight="12" refX="16" refY="6" viewBox="0 0 14 12" orient="auto" markerUnits="userSpaceOnUse" stroke-dasharray="0,0"><path id="SvgjsPath1099" d="M1,1 L14,6 L1,11L1,1" fill="#ffffff" stroke="#323232" stroke-width="2"></path></marker><marker id="SvgjsMarker1102" markerWidth="14" markerHeight="12" refX="16" refY="6" viewBox="0 0 14 12" orient="auto" markerUnits="userSpaceOnUse" stroke-dasharray="0,0"><path id="SvgjsPath1103" d="M1,1 L14,6 L1,11L1,1" fill="#ffffff" stroke="#323232" stroke-width="2"></path></marker><marker id="SvgjsMarker1113" markerWidth="14" markerHeight="12" refX="16" refY="6" viewBox="0 0 14 12" orient="auto" markerUnits="userSpaceOnUse" stroke-dasharray="0,0"><path id="SvgjsPath1114" d="M1,1 L14,6 L1,11L1,1" fill="#ffffff" stroke="#323232" stroke-width="2"></path></marker><marker id="SvgjsMarker1133" markerWidth="14" markerHeight="12" refX="16" refY="6" viewBox="0 0 14 12" orient="auto" markerUnits="userSpaceOnUse" stroke-dasharray="0,0"><path id="SvgjsPath1134" d="M1,1 L14,6 L1,11L1,1" fill="#ffffff" stroke="#323232" stroke-width="2"></path></marker><marker id="SvgjsMarker1137" markerWidth="14" markerHeight="12" refX="16" refY="6" viewBox="0 0 14 12" orient="auto" markerUnits="userSpaceOnUse" stroke-dasharray="0,0"><path id="SvgjsPath1138" d="M1,1 L14,6 L1,11L1,1" fill="#ffffff" stroke="#323232" stroke-width="2"></path></marker><marker id="SvgjsMarker1141" markerWidth="14" markerHeight="12" refX="16" refY="6" viewBox="0 0 14 12" orient="auto" markerUnits="userSpaceOnUse" stroke-dasharray="0,0"><path id="SvgjsPath1142" d="M1,1 L14,6 L1,11L1,1" fill="#ffffff" stroke="#323232" stroke-width="2"></path></marker><marker id="SvgjsMarker1155" markerWidth="16" markerHeight="16" refX="11" refY="8" viewBox="0 0 16 16" orient="auto" markerUnits="userSpaceOnUse" stroke-dasharray="0,0"><path id="SvgjsPath1156" d="M0,0 L10,8 L0,16" fill="none" stroke="#323232" stroke-width="2"></path></marker><marker id="SvgjsMarker1163" markerWidth="16" markerHeight="16" refX="11" refY="8" viewBox="0 0 16 16" orient="auto" markerUnits="userSpaceOnUse" stroke-dasharray="0,0"><path id="SvgjsPath1164" d="M0,0 L10,8 L0,16" fill="none" stroke="#323232" stroke-width="2"></path></marker><marker id="SvgjsMarker1171" markerWidth="16" markerHeight="16" refX="11" refY="8" viewBox="0 0 16 16" orient="auto" markerUnits="userSpaceOnUse" stroke-dasharray="0,0"><path id="SvgjsPath1172" d="M0,0 L10,8 L0,16" fill="none" stroke="#323232" stroke-width="2"></path></marker><marker id="SvgjsMarker1403" markerWidth="14" markerHeight="10" refX="10" refY="5" viewBox="0 0 14 10" orient="auto" markerUnits="userSpaceOnUse" stroke-dasharray="0,0"><path id="SvgjsPath1404" d="M0,0 L14,5 L0,10 L0,0" fill="#323232" stroke="#323232" stroke-width="1"></path></marker><marker id="SvgjsMarker1411" markerWidth="14" markerHeight="10" refX="10" refY="5" viewBox="0 0 14 10" orient="auto" markerUnits="userSpaceOnUse" stroke-dasharray="0,0"><path id="SvgjsPath1412" d="M0,0 L14,5 L0,10 L0,0" fill="#323232" stroke="#323232" stroke-width="1"></path></marker></defs><rect id="svgbackgroundid" width="1437.6190476190477" height="1133.0000114440918" fill="#ffffff"></rect><rect id="SvgjsRect1009" width="1437.6190476190477" height="1133.0000114440918" fill="url(#pattern_mark_0)"></rect><rect id="SvgjsRect1010" width="1437.6190476190477" height="1133.0000114440918" fill="url(#pattern_mark_1)"></rect><g id="SvgjsG1011" transform="translate(45,573.3333435058594)"><path id="SvgjsPath1012" d="M 23.333333333333332 12.5C 23.333333333333332 -4.166666666666666 46.666666666666664 -4.166666666666666 46.666666666666664 12.5C 46.666666666666664 29.166666666666668 23.333333333333332 29.166666666666668 23.333333333333332 12.5M 35 25L 35 75M 35 75L 5.833333333333333 100M 35 75L 64.16666666666666 100M 0 50L 70 50" stroke="rgba(33,41,48,1)" stroke-width="2" fill-opacity="1" fill="#ffffff"></path><path id="SvgjsPath1013" d="M 0 0L 70 0L 70 100L 0 100Z" stroke="none" fill="none"></path><g id="SvgjsG1014"><text id="SvgjsText1015" font-family="微软雅黑" text-anchor="middle" font-size="20px" width="110px" fill="#323232" font-weight="400" align="middle" lineHeight="125%" anchor="middle" family="微软雅黑" size="20px" weight="400" font-style="" opacity="1" y="97" transform="rotate(0)"><tspan id="SvgjsTspan1016" dy="25" x="35"><tspan id="SvgjsTspan1017" style="">User</tspan></tspan></text></g></g><g id="SvgjsG1018" transform="translate(318.1428571428571,25)"><path id="SvgjsPath1019" d="M 0 4Q 0 0 4 0L 780.866678873698 0Q 784.866678873698 0 784.866678873698 4L 784.866678873698 1079.0000114440918Q 784.866678873698 1083.0000114440918 780.866678873698 1083.0000114440918L 4 1083.0000114440918Q 0 1083.0000114440918 0 1079.0000114440918Z" stroke="rgba(33,41,48,1)" stroke-width="2" fill-opacity="1" fill="#ffffff"></path><g id="SvgjsG1020"><text id="SvgjsText1021" font-family="微软雅黑" text-anchor="middle" font-size="20px" width="775px" fill="#323232" font-weight="400" align="middle" lineHeight="125%" anchor="middle" family="微软雅黑" size="20px" weight="400" font-style="" opacity="1" y="60.35714367457798" transform="rotate(0)"><tspan id="SvgjsTspan1022" dy="25" x="392.5"><tspan id="SvgjsTspan1023" style="">SUSTech Football System</tspan></tspan></text></g></g><g id="SvgjsG1024" transform="translate(188.80952380952377,756.1666768391927)"><path id="SvgjsPath1025" d="M 23.333333333333332 12.5C 23.333333333333332 -4.166666666666666 46.666666666666664 -4.166666666666666 46.666666666666664 12.5C 46.666666666666664 29.166666666666668 23.333333333333332 29.166666666666668 23.333333333333332 12.5M 35 25L 35 75M 35 75L 5.833333333333333 100M 35 75L 64.16666666666666 100M 0 50L 70 50" stroke="rgba(33,41,48,1)" stroke-width="2" fill-opacity="1" fill="#ffffff"></path><path id="SvgjsPath1026" d="M 0 0L 70 0L 70 100L 0 100Z" stroke="none" fill="none"></path><g id="SvgjsG1027"><text id="SvgjsText1028" font-family="微软雅黑" text-anchor="middle" font-size="20px" width="110px" fill="#323232" font-weight="400" align="middle" lineHeight="125%" anchor="middle" family="微软雅黑" size="20px" weight="400" font-style="" opacity="1" y="97" transform="rotate(0)"><tspan id="SvgjsTspan1029" dy="25" x="35"><tspan id="SvgjsTspan1030" style="">Coach</tspan></tspan></text></g></g><g id="SvgjsG1031" transform="translate(188.80952380952377,435.3333435058594)"><path id="SvgjsPath1032" d="M 23.333333333333332 12.5C 23.333333333333332 -4.166666666666666 46.666666666666664 -4.166666666666666 46.666666666666664 12.5C 46.666666666666664 29.166666666666668 23.333333333333332 29.166666666666668 23.333333333333332 12.5M 35 25L 35 75M 35 75L 5.833333333333333 100M 35 75L 64.16666666666666 100M 0 50L 70 50" stroke="rgba(33,41,48,1)" stroke-width="2" fill-opacity="1" fill="#ffffff"></path><path id="SvgjsPath1033" d="M 0 0L 70 0L 70 100L 0 100Z" stroke="none" fill="none"></path><g id="SvgjsG1034"><text id="SvgjsText1035" font-family="微软雅黑" text-anchor="middle" font-size="20px" width="110px" fill="#323232" font-weight="400" align="middle" lineHeight="125%" anchor="middle" family="微软雅黑" size="20px" weight="400" font-style="" opacity="1" y="97" transform="rotate(0)"><tspan id="SvgjsTspan1036" dy="25" x="35"><tspan id="SvgjsTspan1037" style="">Player</tspan></tspan></text></g></g><g id="SvgjsG1038" transform="translate(425.34226905731975,573.3333435058594)"><path id="SvgjsPath1039" d="M 0 32.97023537045436C 0 -10.99007845681812 175.94344522839475 -10.99007845681812 175.94344522839475 32.97023537045436C 175.94344522839475 76.93054919772685 0 76.93054919772685 0 32.97023537045436Z" stroke="rgba(33,41,48,1)" stroke-width="2" fill-opacity="1" fill="#ffffff"></path><g id="SvgjsG1040"><text id="SvgjsText1041" font-family="微软雅黑" text-anchor="middle" font-size="18px" width="156px" fill="#323232" font-weight="400" align="middle" lineHeight="125%" anchor="middle" family="微软雅黑" size="18px" weight="400" font-style="" opacity="1" y="17.22023537045436" transform="rotate(0)"><tspan id="SvgjsTspan1042" dy="22.5" x="88"><tspan id="SvgjsTspan1043" style="">register identity</tspan></tspan></text></g></g><g id="SvgjsG1044" transform="translate(365.40476190476204,116.66667683919272)"><path id="SvgjsPath1045" d="M 0 39.70833333333333C 0 -13.236111111111109 224.52380952380975 -13.236111111111109 224.52380952380975 39.70833333333333C 224.52380952380975 92.65277777777777 0 92.65277777777777 0 39.70833333333333Z" stroke="rgba(33,41,48,1)" stroke-width="2" fill-opacity="1" fill="#ffffff"></path><g id="SvgjsG1046"><text id="SvgjsText1047" font-family="微软雅黑" text-anchor="middle" font-size="18px" width="205px" fill="#323232" font-weight="400" align="middle" lineHeight="125%" anchor="middle" family="微软雅黑" size="18px" weight="400" font-style="" opacity="1" y="12.958333333333329" transform="rotate(0)"><tspan id="SvgjsTspan1048" dy="22.5" x="112.5"><tspan id="SvgjsTspan1049" style="">Register match </tspan></tspan><tspan id="SvgjsTspan1050" dy="22.5" x="112.5"><tspan id="SvgjsTspan1051" style="">information and result</tspan></tspan></text></g></g><g id="SvgjsG1052" transform="translate(411.39434663454733,288.0803667704264)"><path id="SvgjsPath1053" d="M 0 36.043155034383176C 0 -12.014385011461059 203.83929007393954 -12.014385011461059 203.83929007393954 36.043155034383176C 203.83929007393954 84.10069508022741 0 84.10069508022741 0 36.043155034383176Z" stroke="rgba(33,41,48,1)" stroke-width="2" fill-opacity="1" fill="#ffffff"></path><g id="SvgjsG1054"><text id="SvgjsText1055" font-family="微软雅黑" text-anchor="middle" font-size="18px" width="184px" fill="#323232" font-weight="400" align="middle" lineHeight="125%" anchor="middle" family="微软雅黑" size="18px" weight="400" font-style="" opacity="1" y="-2.206844965616824" transform="rotate(0)"><tspan id="SvgjsTspan1056" dy="22.5" x="102"><tspan id="SvgjsTspan1057" style="">Accept/Refuse </tspan></tspan><tspan id="SvgjsTspan1058" dy="22.5" x="102"><tspan id="SvgjsTspan1059" style="">invitation to join a </tspan></tspan><tspan id="SvgjsTspan1060" dy="22.5" x="102"><tspan id="SvgjsTspan1061" style="">team </tspan></tspan></text></g></g><g id="SvgjsG1062"><path id="SvgjsPath1063" d="M115.99849780613843 623.2785517990342L424.34377125118135 606.3583705831384" stroke="#323232" stroke-width="2" fill="none"></path></g><g id="SvgjsG1064" transform="translate(1160.1428571428573,443.476200921195)"><path id="SvgjsPath1065" d="M 23.333333333333332 12.5C 23.333333333333332 -4.166666666666666 46.666666666666664 -4.166666666666666 46.666666666666664 12.5C 46.666666666666664 29.166666666666668 23.333333333333332 29.166666666666668 23.333333333333332 12.5M 35 25L 35 75M 35 75L 5.833333333333333 100M 35 75L 64.16666666666666 100M 0 50L 70 50" stroke="rgba(33,41,48,1)" stroke-width="2" fill-opacity="1" fill="#ffffff"></path><path id="SvgjsPath1066" d="M 0 0L 70 0L 70 100L 0 100Z" stroke="none" fill="none"></path><g id="SvgjsG1067"><text id="SvgjsText1068" font-family="微软雅黑" text-anchor="middle" font-size="20px" width="110px" fill="#323232" font-weight="400" align="middle" lineHeight="125%" anchor="middle" family="微软雅黑" size="20px" weight="400" font-style="" opacity="1" y="84.5" transform="rotate(0)"><tspan id="SvgjsTspan1069" dy="25" x="35"><tspan id="SvgjsTspan1070" style="">Match </tspan></tspan><tspan id="SvgjsTspan1071" dy="25" x="35"><tspan id="SvgjsTspan1072" style="">maneger</tspan></tspan></text></g></g><g id="SvgjsG1073" transform="translate(1155.8571428571431,209.66667683919275)"><path id="SvgjsPath1074" d="M 23.333333333333332 12.5C 23.333333333333332 -4.166666666666666 46.666666666666664 -4.166666666666666 46.666666666666664 12.5C 46.666666666666664 29.166666666666668 23.333333333333332 29.166666666666668 23.333333333333332 12.5M 35 25L 35 75M 35 75L 5.833333333333333 100M 35 75L 64.16666666666666 100M 0 50L 70 50" stroke="rgba(33,41,48,1)" stroke-width="2" fill-opacity="1" fill="#ffffff"></path><path id="SvgjsPath1075" d="M 0 0L 70 0L 70 100L 0 100Z" stroke="none" fill="none"></path><g id="SvgjsG1076"><text id="SvgjsText1077" font-family="微软雅黑" text-anchor="middle" font-size="20px" width="110px" fill="#323232" font-weight="400" align="middle" lineHeight="125%" anchor="middle" family="微软雅黑" size="20px" weight="400" font-style="" opacity="1" y="84.5" transform="rotate(0)"><tspan id="SvgjsTspan1078" dy="25" x="35"><tspan id="SvgjsTspan1079" style="">Team </tspan></tspan><tspan id="SvgjsTspan1080" dy="25" x="35"><tspan id="SvgjsTspan1081" style="">manager</tspan></tspan></text></g></g><g id="SvgjsG1082" transform="translate(335.5133964334217,959.9523873102097)"><path id="SvgjsPath1083" d="M 0 34.23214394705633C 0 -11.410714649018777 201.49404203324082 -11.410714649018777 201.49404203324082 34.23214394705633C 201.49404203324082 79.87500254313143 0 79.87500254313143 0 34.23214394705633Z" stroke="rgba(33,41,48,1)" stroke-width="2" fill-opacity="1" fill="#ffffff"></path><g id="SvgjsG1084"><text id="SvgjsText1085" font-family="微软雅黑" text-anchor="middle" font-size="18px" width="182px" fill="#323232" font-weight="400" align="middle" lineHeight="125%" anchor="middle" family="微软雅黑" size="18px" weight="400" font-style="" opacity="1" y="7.482143947056329" transform="rotate(0)"><tspan id="SvgjsTspan1086" dy="22.5" x="101"><tspan id="SvgjsTspan1087" style="">Accept/Refuse </tspan></tspan><tspan id="SvgjsTspan1088" dy="22.5" x="101"><tspan id="SvgjsTspan1089" style="">team's invitation</tspan></tspan></text></g></g><g id="SvgjsG1090" transform="translate(824.3809523809527,29.904772077287923)"><path id="SvgjsPath1091" d="M 0 27C 0 -9 225.71428571428532 -9 225.71428571428532 27C 225.71428571428532 63 0 63 0 27Z" stroke="rgba(33,41,48,1)" stroke-width="2" fill-opacity="1" fill="#ffffff"></path><g id="SvgjsG1092"><text id="SvgjsText1093" font-family="微软雅黑" text-anchor="middle" font-size="18px" width="206px" fill="#323232" font-weight="400" align="middle" lineHeight="125%" anchor="middle" family="微软雅黑" size="18px" weight="400" font-style="" opacity="1" y="11.25" transform="rotate(0)"><tspan id="SvgjsTspan1094" dy="22.5" x="113"><tspan id="SvgjsTspan1095" style=""> Edit team information</tspan></tspan></text></g></g><g id="SvgjsG1096"><path id="SvgjsPath1097" d="M188.2866715231959 805.3142535366712L109.21559139158767 676.4020673949369" stroke="#323232" stroke-width="2" fill="none" marker-end="url(#SvgjsMarker1098)"></path></g><g id="SvgjsG1100"><path id="SvgjsPath1101" d="M188.33789356763586 486.2151399194021L116.6978688707965 620.1588764171057" stroke="#323232" stroke-width="2" fill="none" marker-end="url(#SvgjsMarker1102)"></path></g><g id="SvgjsG1104" transform="translate(188.80952380952377,171.00001017252603)"><path id="SvgjsPath1105" d="M 23.333333333333332 12.5C 23.333333333333332 -4.166666666666666 46.666666666666664 -4.166666666666666 46.666666666666664 12.5C 46.666666666666664 29.166666666666668 23.333333333333332 29.166666666666668 23.333333333333332 12.5M 35 25L 35 75M 35 75L 5.833333333333333 100M 35 75L 64.16666666666666 100M 0 50L 70 50" stroke="rgba(33,41,48,1)" stroke-width="1.5" fill-opacity="1" fill="#ffffff"></path><path id="SvgjsPath1106" d="M 0 0L 70 0L 70 100L 0 100Z" stroke="none" fill="none"></path><g id="SvgjsG1107"><text id="SvgjsText1108" font-family="微软雅黑" text-anchor="middle" font-size="20px" width="110px" fill="#323232" font-weight="400" align="middle" lineHeight="125%" anchor="middle" family="微软雅黑" size="20px" weight="400" font-style="" opacity="1" y="97" transform="rotate(0)"><tspan id="SvgjsTspan1109" dy="25" x="35"><tspan id="SvgjsTspan1110" style="">Referee</tspan></tspan></text></g></g><g id="SvgjsG1111"><path id="SvgjsPath1112" d="M223.4873635116737 271.67729352717834L81.54636942968035 570.0823834035281" stroke="#323232" stroke-width="2" fill="none" marker-end="url(#SvgjsMarker1113)"></path></g><g id="SvgjsG1115" transform="translate(1147.5238095238099,859.9523873102097)"><path id="SvgjsPath1116" d="M 23.333333333333332 12.5C 23.333333333333332 -4.166666666666666 46.666666666666664 -4.166666666666666 46.666666666666664 12.5C 46.666666666666664 29.166666666666668 23.333333333333332 29.166666666666668 23.333333333333332 12.5M 35 25L 35 75M 35 75L 5.833333333333333 100M 35 75L 64.16666666666666 100M 0 50L 70 50" stroke="rgba(33,41,48,1)" stroke-width="2" fill-opacity="1" fill="#ffffff"></path><path id="SvgjsPath1117" d="M 0 0L 70 0L 70 100L 0 100Z" stroke="none" fill="none"></path><g id="SvgjsG1118"><text id="SvgjsText1119" font-family="微软雅黑" text-anchor="middle" font-size="20px" width="110px" fill="#323232" font-weight="400" align="middle" lineHeight="125%" anchor="middle" family="微软雅黑" size="20px" weight="400" font-style="" opacity="1" y="84.5" transform="rotate(0)"><tspan id="SvgjsTspan1120" dy="25" x="35"><tspan id="SvgjsTspan1121" style="">Event </tspan></tspan><tspan id="SvgjsTspan1122" dy="25" x="35"><tspan id="SvgjsTspan1123" style="">manager</tspan></tspan></text></g></g><g id="SvgjsG1124" transform="translate(1322.6190476190477,443.47620092119496)"><path id="SvgjsPath1125" d="M 23.333333333333332 12.5C 23.333333333333332 -4.166666666666666 46.666666666666664 -4.166666666666666 46.666666666666664 12.5C 46.666666666666664 29.166666666666668 23.333333333333332 29.166666666666668 23.333333333333332 12.5M 35 25L 35 75M 35 75L 5.833333333333333 100M 35 75L 64.16666666666666 100M 0 50L 70 50" stroke="rgba(33,41,48,1)" stroke-width="2" fill-opacity="1" fill="#ffffff"></path><path id="SvgjsPath1126" d="M 0 0L 70 0L 70 100L 0 100Z" stroke="none" fill="none"></path><g id="SvgjsG1127"><text id="SvgjsText1128" font-family="微软雅黑" text-anchor="middle" font-size="20px" width="110px" fill="#323232" font-weight="400" align="middle" lineHeight="125%" anchor="middle" family="微软雅黑" size="20px" weight="400" font-style="" opacity="1" y="97" transform="rotate(0)"><tspan id="SvgjsTspan1129" dy="25" x="35"><tspan id="SvgjsTspan1130" style="">User</tspan></tspan></text></g></g><g id="SvgjsG1131"><path id="SvgjsPath1132" d="M1226.439754533647 260.4794274986212L1355.521645583634 440.5502985472525" stroke="#323232" stroke-width="2" fill="none" marker-end="url(#SvgjsMarker1133)"></path></g><g id="SvgjsG1135"><path id="SvgjsPath1136" d="M1231.1428571428573 493.47620092119524L1319.0190476190478 493.47620092119496" stroke="#323232" stroke-width="2" fill="none" marker-end="url(#SvgjsMarker1137)"></path></g><g id="SvgjsG1139"><path id="SvgjsPath1140" d="M1217.8106707223017 908.9944151536206L1326.3641250822552 546.4804630221553" stroke="#323232" stroke-width="2" fill="none" marker-end="url(#SvgjsMarker1141)"></path></g><g id="SvgjsG1143" transform="translate(363.81548055013036,37.04763303484238)"><path id="SvgjsPath1144" d="M 0 37.3303552355085C 0 -12.443451745169499 228.70387044407107 -12.443451745169499 228.70387044407107 37.3303552355085C 228.70387044407107 87.1041622161865 0 87.1041622161865 0 37.3303552355085Z" stroke="rgba(33,41,48,1)" stroke-width="2" fill-opacity="1" fill="#ffffff"></path><g id="SvgjsG1145"><text id="SvgjsText1146" font-family="微软雅黑" text-anchor="middle" font-size="18px" width="209px" fill="#323232" font-weight="400" align="middle" lineHeight="125%" anchor="middle" family="微软雅黑" size="18px" weight="400" font-style="" opacity="1" y="-0.9196447644915011" transform="rotate(0)"><tspan id="SvgjsTspan1147" dy="22.5" x="114.5"><tspan id="SvgjsTspan1148" style="">Accept/Refuse </tspan></tspan><tspan id="SvgjsTspan1149" dy="22.5" x="114.5"><tspan id="SvgjsTspan1150" style="">invitation to officiate </tspan></tspan><tspan id="SvgjsTspan1151" dy="22.5" x="114.5"><tspan id="SvgjsTspan1152" style="">match </tspan></tspan></text></g></g><g id="SvgjsG1153"><path id="SvgjsPath1154" d="M224.61893957093238 755.5794408345206L424.3480376275412 610.6747785440002" stroke-dasharray="3,3" stroke="#323232" stroke-width="2" fill="none" marker-end="url(#SvgjsMarker1155)"></path><rect id="SvgjsRect1157" width="116.4" height="25" x="266.2834885992368" y="670.6271096892604" fill="#ffffff"></rect><text id="SvgjsText1158" font-family="微软雅黑" text-anchor="middle" font-size="18px" width="116.4px" fill="#323232" font-weight="400" align="top" lineHeight="23px" anchor="middle" family="微软雅黑" size="18px" weight="400" font-style="" opacity="1" y="666.3771096892604" transform="rotate(0)"><tspan id="SvgjsTspan1159" dy="22.5" x="324.2834885992368"><tspan id="SvgjsTspan1160" style="">&lt;&lt;include&gt;&gt;</tspan></tspan></text></g><g id="SvgjsG1161"><path id="SvgjsPath1162" d="M224.75274741690947 535.6655019416552L423.4558218425484 605.6392620047217" stroke-dasharray="3,3" stroke="#323232" stroke-width="2" fill="none" marker-end="url(#SvgjsMarker1163)"></path><rect id="SvgjsRect1165" width="116.4" height="25" x="265.9042846297289" y="558.1523819731884" fill="#ffffff"></rect><text id="SvgjsText1166" font-family="微软雅黑" text-anchor="middle" font-size="18px" width="116.4px" fill="#323232" font-weight="400" align="top" lineHeight="23px" anchor="middle" family="微软雅黑" size="18px" weight="400" font-style="" opacity="1" y="553.9023819731884" transform="rotate(0)"><tspan id="SvgjsTspan1167" dy="22.5" x="323.9042846297289"><tspan id="SvgjsTspan1168" style="">&lt;&lt;include&gt;&gt;</tspan></tspan></text></g><g id="SvgjsG1169"><path id="SvgjsPath1170" d="M224.19588974453325 271.64283313747376L424.3119598972945 604.5893843031191" stroke-dasharray="3,3" stroke="#323232" stroke-width="2" fill="none" marker-end="url(#SvgjsMarker1171)"></path><rect id="SvgjsRect1173" width="116.4" height="25" x="266.0539248209139" y="425.61610872029644" fill="#ffffff"></rect><text id="SvgjsText1174" font-family="微软雅黑" text-anchor="middle" font-size="18px" width="116.4px" fill="#323232" font-weight="400" align="top" lineHeight="23px" anchor="middle" family="微软雅黑" size="18px" weight="400" font-style="" opacity="1" y="421.36610872029644" transform="rotate(0)"><tspan id="SvgjsTspan1175" dy="22.5" x="324.0539248209139"><tspan id="SvgjsTspan1176" style="">&lt;&lt;include&gt;&gt;</tspan></tspan></text></g><g id="SvgjsG1177"><path id="SvgjsPath1178" d="M259.24621198507384 220.3902533051315L363.233229649397 75.19099742687686" stroke="#323232" stroke-width="2" fill="none"></path></g><g id="SvgjsG1179"><path id="SvgjsPath1180" d="M259.1872599311863 807.0925901301608L335.13566031175924 993.2586179662978" stroke="#323232" stroke-width="2" fill="none"></path></g><g id="SvgjsG1181"><path id="SvgjsPath1182" d="M259.45086397076795 220.61118785118205L364.5496416897698 156.89343993431802" stroke="#323232" stroke-width="2" fill="none"></path></g><g id="SvgjsG1183" transform="translate(373.94643293108277,705.1666768391927)"><path id="SvgjsPath1184" d="M 0 31.595238095238074C 0 -10.531746031746025 191.86308372588366 -10.531746031746025 191.86308372588366 31.595238095238074C 191.86308372588366 73.72222222222217 0 73.72222222222217 0 31.595238095238074Z" stroke="rgba(33,41,48,1)" stroke-width="2" fill-opacity="1" fill="#ffffff"></path><g id="SvgjsG1185"><text id="SvgjsText1186" font-family="微软雅黑" text-anchor="middle" font-size="18px" width="172px" fill="#323232" font-weight="400" align="middle" lineHeight="125%" anchor="middle" family="微软雅黑" size="18px" weight="400" font-style="" opacity="1" y="4.845238095238074" transform="rotate(0)"><tspan id="SvgjsTspan1187" dy="22.5" x="96"><tspan id="SvgjsTspan1188" style="">Receive </tspan></tspan><tspan id="SvgjsTspan1189" dy="22.5" x="96"><tspan id="SvgjsTspan1190" style="">messge/notification</tspan></tspan></text></g></g><g id="SvgjsG1191"><path id="SvgjsPath1192" d="M115.9159760286573 623.7345764991753L373.0304569024255 736.3606819411149" stroke="#323232" stroke-width="2" fill="none"></path></g><g id="SvgjsG1193" transform="translate(362.6577402750655,780.6666768391927)"><path id="SvgjsPath1194" d="M 0 33.489583333333314C 0 -11.163194444444438 194.7202424548916 -11.163194444444438 194.7202424548916 33.489583333333314C 194.7202424548916 78.14236111111107 0 78.14236111111107 0 33.489583333333314Z" stroke="rgba(33,41,48,1)" stroke-width="2" fill-opacity="1" fill="#ffffff"></path><g id="SvgjsG1195"><text id="SvgjsText1196" font-family="微软雅黑" text-anchor="middle" font-size="18px" width="175px" fill="#323232" font-weight="400" align="middle" lineHeight="125%" anchor="middle" family="微软雅黑" size="18px" weight="400" font-style="" opacity="1" y="6.739583333333314" transform="rotate(0)"><tspan id="SvgjsTspan1197" dy="22.5" x="97.5"><tspan id="SvgjsTspan1198" style="">Check others </tspan></tspan><tspan id="SvgjsTspan1199" dy="22.5" x="97.5"><tspan id="SvgjsTspan1200" style="">information</tspan></tspan></text></g></g><g id="SvgjsG1201"><path id="SvgjsPath1202" d="M115.79213378999351 623.9436909960242L361.865606485072 813.5459126823613" stroke="#323232" stroke-width="2" fill="none"></path></g><g id="SvgjsG1203" transform="translate(332.0684523809525,859.9523873102097)"><path id="SvgjsPath1204" d="M 0 40.273810613723015C 0 -13.424603537907672 208.3839301381792 -13.424603537907672 208.3839301381792 40.273810613723015C 208.3839301381792 93.9722247653537 0 93.9722247653537 0 40.273810613723015Z" stroke="rgba(33,41,48,1)" stroke-width="2" fill-opacity="1" fill="#ffffff"></path><g id="SvgjsG1205"><text id="SvgjsText1206" font-family="微软雅黑" text-anchor="middle" font-size="18px" width="189px" fill="#323232" font-weight="400" align="middle" lineHeight="125%" anchor="middle" family="微软雅黑" size="18px" weight="400" font-style="" opacity="1" y="24.523810613723015" transform="rotate(0)"><tspan id="SvgjsTspan1207" dy="22.5" x="104.5"><tspan id="SvgjsTspan1208" style="">Watch live and replay</tspan></tspan></text></g></g><g id="SvgjsG1209"><path id="SvgjsPath1210" d="M115.61695969759296 624.1203382526944L331.45149268335956 899.4392031770977" stroke="#323232" stroke-width="2" fill="none"></path></g><g id="SvgjsG1211" transform="translate(411.39434663454733,214.000010172526)"><path id="SvgjsPath1212" d="M 0 28.5C 0 -9.5 198.1651700224191 -9.5 198.1651700224191 28.5C 198.1651700224191 66.5 0 66.5 0 28.5Z" stroke="rgba(33,41,48,1)" stroke-width="2" fill-opacity="1" fill="#ffffff"></path><g id="SvgjsG1213"><text id="SvgjsText1214" font-family="微软雅黑" text-anchor="middle" font-size="18px" width="179px" fill="#323232" font-weight="400" align="middle" lineHeight="125%" anchor="middle" family="微软雅黑" size="18px" weight="400" font-style="" opacity="1" y="12.75" transform="rotate(0)"><tspan id="SvgjsTspan1215" dy="22.5" x="99.5"><tspan id="SvgjsTspan1216" style="">Apply to join a team</tspan></tspan></text></g></g><g id="SvgjsG1217"><path id="SvgjsPath1218" d="M259.49693534897426 484.60707539047064L410.7069350950969 324.8497899201983" stroke="#323232" stroke-width="2" fill="none"></path></g><g id="SvgjsG1219"><path id="SvgjsPath1220" d="M259.34156220218983 484.48662327536454L410.86230824188124 243.34673040302084" stroke="#323232" stroke-width="2" fill="none"></path></g><g id="SvgjsG1221" transform="translate(439.97767996788093,383.7887035097395)"><path id="SvgjsPath1222" d="M 0 29.843748705727762C 0 -9.947916235242587 146.67262340727257 -9.947916235242587 146.67262340727257 29.843748705727762C 146.67262340727257 69.63541364669811 0 69.63541364669811 0 29.843748705727762Z" stroke="rgba(33,41,48,1)" stroke-width="2" fill-opacity="1" fill="#ffffff"></path><g id="SvgjsG1223"><text id="SvgjsText1224" font-family="微软雅黑" text-anchor="middle" font-size="18px" width="127px" fill="#323232" font-weight="400" align="middle" lineHeight="125%" anchor="middle" family="微软雅黑" size="18px" weight="400" font-style="" opacity="1" y="14.093748705727762" transform="rotate(0)"><tspan id="SvgjsTspan1225" dy="22.5" x="73.5"><tspan id="SvgjsTspan1226" style="">Create a team</tspan></tspan></text></g></g><g id="SvgjsG1227"><path id="SvgjsPath1228" d="M259.7393506263054 484.96534609989874L439.0478531510993 414.00044962142783" stroke="#323232" stroke-width="2" fill="none"></path></g><g id="SvgjsG1229" transform="translate(407.9895847297853,484.65477241788597)"><path id="SvgjsPath1230" d="M 0 31.821428503308965C 0 -10.607142834436322 210.64881388346373 -10.607142834436322 210.64881388346373 31.821428503308965C 210.64881388346373 74.24999984105425 0 74.24999984105425 0 31.821428503308965Z" stroke="rgba(33,41,48,1)" stroke-width="2" fill-opacity="1" fill="#ffffff"></path><g id="SvgjsG1231"><text id="SvgjsText1232" font-family="微软雅黑" text-anchor="middle" font-size="18px" width="191px" fill="#323232" font-weight="400" align="middle" lineHeight="125%" anchor="middle" family="微软雅黑" size="18px" weight="400" font-style="" opacity="1" y="5.071428503308965" transform="rotate(0)"><tspan id="SvgjsTspan1233" dy="22.5" x="105.5"><tspan id="SvgjsTspan1234" style="">Edit personal </tspan></tspan><tspan id="SvgjsTspan1235" dy="22.5" x="105.5"><tspan id="SvgjsTspan1236" style="">information</tspan></tspan></text></g></g><g id="SvgjsG1237"><path id="SvgjsPath1238" d="M259.78888716447796 485.89259367089335L407.0102213748312 516.2740934770645" stroke="#323232" stroke-width="2" fill="none"></path></g><g id="SvgjsG1239"><path id="SvgjsPath1240" d="M259.1475452963292 221.66951855519036L407.53888941404466 515.5835230776424" stroke="#323232" stroke-width="2" fill="none"></path></g><g id="SvgjsG1241"><path id="SvgjsPath1242" d="M407.53176014663495 517.3652434685812L259.2673483926742 805.2776342918064" stroke="#323232" stroke-width="2" fill="none"></path></g><g id="SvgjsG1243" transform="translate(797.11606443496,301.75001017252606)"><path id="SvgjsPath1244" d="M 0 27C 0 -9 257.26488794599254 -9 257.26488794599254 27C 257.26488794599254 63 0 63 0 27Z" stroke="rgba(33,41,48,1)" stroke-width="2" fill-opacity="1" fill="#ffffff"></path><g id="SvgjsG1245"><text id="SvgjsText1246" font-family="微软雅黑" text-anchor="middle" font-size="18px" width="238px" fill="#323232" font-weight="400" align="middle" lineHeight="125%" anchor="middle" family="微软雅黑" size="18px" weight="400" font-style="" opacity="1" y="0.25" transform="rotate(0)"><tspan id="SvgjsTspan1247" dy="22.5" x="129"><tspan id="SvgjsTspan1248" style="">Invite other team to create </tspan></tspan><tspan id="SvgjsTspan1249" dy="22.5" x="129"><tspan id="SvgjsTspan1250" style="">a match</tspan></tspan></text></g></g><g id="SvgjsG1251" transform="translate(824.3809523809527,97.64584350585938)"><path id="SvgjsPath1252" d="M 0 29.07142734527588C 0 -9.690475781758627 243.92856189182794 -9.690475781758627 243.92856189182794 29.07142734527588C 243.92856189182794 67.83333047231038 0 67.83333047231038 0 29.07142734527588Z" stroke="rgba(33,41,48,1)" stroke-width="2" fill-opacity="1" fill="#ffffff"></path><g id="SvgjsG1253"><text id="SvgjsText1254" font-family="微软雅黑" text-anchor="middle" font-size="18px" width="224px" fill="#323232" font-weight="400" align="middle" lineHeight="125%" anchor="middle" family="微软雅黑" size="18px" weight="400" font-style="" opacity="1" y="2.321427345275879" transform="rotate(0)"><tspan id="SvgjsTspan1255" dy="22.5" x="122"><tspan id="SvgjsTspan1256" style=""> Invite player to join the </tspan></tspan><tspan id="SvgjsTspan1257" dy="22.5" x="122"><tspan id="SvgjsTspan1258" style="">team</tspan></tspan></text></g></g><g id="SvgjsG1259" transform="translate(801.1428520565939,360.16667683919275)"><path id="SvgjsPath1260" d="M 0 27C 0 -9 253.23810032435858 -9 253.23810032435858 27C 253.23810032435858 63 0 63 0 27Z" stroke="rgba(33,41,48,1)" stroke-width="2" fill-opacity="1" fill="#ffffff"></path><g id="SvgjsG1261"><text id="SvgjsText1262" font-family="微软雅黑" text-anchor="middle" font-size="18px" width="234px" fill="#323232" font-weight="400" align="middle" lineHeight="125%" anchor="middle" family="微软雅黑" size="18px" weight="400" font-style="" opacity="1" y="11.25" transform="rotate(0)"><tspan id="SvgjsTspan1263" dy="22.5" x="127"><tspan id="SvgjsTspan1264" style=""> Apply to join a event</tspan></tspan></text></g></g><g id="SvgjsG1265" transform="translate(794.9732072921031,243.33334350585938)"><path id="SvgjsPath1266" d="M 0 27C 0 -9 261.5506022317063 -9 261.5506022317063 27C 261.5506022317063 63 0 63 0 27Z" stroke="rgba(33,41,48,1)" stroke-width="2" fill-opacity="1" fill="#ffffff"></path><g id="SvgjsG1267"><text id="SvgjsText1268" font-family="微软雅黑" text-anchor="middle" font-size="18px" width="242px" fill="#323232" font-weight="400" align="middle" lineHeight="125%" anchor="middle" family="微软雅黑" size="18px" weight="400" font-style="" opacity="1" y="11.25" transform="rotate(0)"><tspan id="SvgjsTspan1269" dy="22.5" x="131"><tspan id="SvgjsTspan1270" style=""> Invite coach for the team </tspan></tspan></text></g></g><g id="SvgjsG1271" transform="translate(807.1324368999117,424.82143888019385)"><path id="SvgjsPath1272" d="M 0 27C 0 -9 247.24851548104084 -9 247.24851548104084 27C 247.24851548104084 63 0 63 0 27Z" stroke="rgba(33,41,48,1)" stroke-width="2" fill-opacity="1" fill="#ffffff"></path><g id="SvgjsG1273"><text id="SvgjsText1274" font-family="微软雅黑" text-anchor="middle" font-size="18px" width="228px" fill="#323232" font-weight="400" align="middle" lineHeight="125%" anchor="middle" family="微软雅黑" size="18px" weight="400" font-style="" opacity="1" y="0.25" transform="rotate(0)"><tspan id="SvgjsTspan1275" dy="22.5" x="124"><tspan id="SvgjsTspan1276" style=""> Invite other user to </tspan></tspan><tspan id="SvgjsTspan1277" dy="22.5" x="124"><tspan id="SvgjsTspan1278" style="">manage the team </tspan></tspan></text></g></g><g id="SvgjsG1279"><path id="SvgjsPath1280" d="M1050.555162322675 56.36415881497012L1155.3972186297062 258.7787186729391" stroke="#323232" stroke-width="2" fill="none"></path></g><g id="SvgjsG1281"><path id="SvgjsPath1282" d="M1055.2075775439785 328.18725726062564L1155.0305176941172 260.22942975109316" stroke="#323232" stroke-width="2" fill="none"></path></g><g id="SvgjsG1283"><path id="SvgjsPath1284" d="M1068.8594854781102 127.55245446765822L1155.3071716518136 258.8314932226698" stroke="#323232" stroke-width="2" fill="none"></path></g><g id="SvgjsG1285"><path id="SvgjsPath1286" d="M1055.00368540992 386.3842424492066L1155.2344098281756 260.44911122917887" stroke="#323232" stroke-width="2" fill="none"></path></g><g id="SvgjsG1287"><path id="SvgjsPath1288" d="M1057.518093404997 270.2265747669399L1154.8628589759555 259.7734455781122" stroke="#323232" stroke-width="2" fill="none"></path></g><g id="SvgjsG1289"><path id="SvgjsPath1290" d="M1054.8479311797655 450.93717036811216L1155.3901640583301 260.55094535127444" stroke="#323232" stroke-width="2" fill="none"></path></g><g id="SvgjsG1291" transform="translate(790.111596414021,558.7619149344309)"><path id="SvgjsPath1292" d="M 0 27C 0 -9 256.9360200904666 -9 256.9360200904666 27C 256.9360200904666 63 0 63 0 27Z" stroke="rgba(33,41,48,1)" stroke-width="2" fill-opacity="1" fill="#ffffff"></path><g id="SvgjsG1293"><text id="SvgjsText1294" font-family="微软雅黑" text-anchor="middle" font-size="18px" width="237px" fill="#323232" font-weight="400" align="middle" lineHeight="125%" anchor="middle" family="微软雅黑" size="18px" weight="400" font-style="" opacity="1" y="0.25" transform="rotate(0)"><tspan id="SvgjsTspan1295" dy="22.5" x="128.5"><tspan id="SvgjsTspan1296" style=""> Invite referee to officiate </tspan></tspan><tspan id="SvgjsTspan1297" dy="22.5" x="128.5"><tspan id="SvgjsTspan1298" style="">the match</tspan></tspan></text></g></g><g id="SvgjsG1299" transform="translate(801.1428520565939,489.47620092119496)"><path id="SvgjsPath1300" d="M 0 27C 0 -9 241.6190501621793 -9 241.6190501621793 27C 241.6190501621793 63 0 63 0 27Z" stroke="rgba(33,41,48,1)" stroke-width="2" fill-opacity="1" fill="#ffffff"></path><g id="SvgjsG1301"><text id="SvgjsText1302" font-family="微软雅黑" text-anchor="middle" font-size="18px" width="222px" fill="#323232" font-weight="400" align="middle" lineHeight="125%" anchor="middle" family="微软雅黑" size="18px" weight="400" font-style="" opacity="1" y="11.25" transform="rotate(0)"><tspan id="SvgjsTspan1303" dy="22.5" x="121"><tspan id="SvgjsTspan1304" style=""> Edit match information</tspan></tspan></text></g></g><g id="SvgjsG1305" transform="translate(796.5401678425928,634.2619149344309)"><path id="SvgjsPath1306" d="M 0 27C 0 -9 244.07887723332306 -9 244.07887723332306 27C 244.07887723332306 63 0 63 0 27Z" stroke="rgba(33,41,48,1)" stroke-width="2" fill-opacity="1" fill="#ffffff"></path><g id="SvgjsG1307"><text id="SvgjsText1308" font-family="微软雅黑" text-anchor="middle" font-size="18px" width="225px" fill="#323232" font-weight="400" align="middle" lineHeight="125%" anchor="middle" family="微软雅黑" size="18px" weight="400" font-style="" opacity="1" y="11.25" transform="rotate(0)"><tspan id="SvgjsTspan1309" dy="22.5" x="122.5"><tspan id="SvgjsTspan1310" style=""> Broadcast live and replay</tspan></tspan></text></g></g><g id="SvgjsG1311" transform="translate(814.9047593616306,709.7619149344308)"><path id="SvgjsPath1312" d="M 0 27C 0 -9 239.4761930193215 -9 239.4761930193215 27C 239.4761930193215 63 0 63 0 27Z" stroke="rgba(33,41,48,1)" stroke-width="2" fill-opacity="1" fill="#ffffff"></path><g id="SvgjsG1313"><text id="SvgjsText1314" font-family="微软雅黑" text-anchor="middle" font-size="18px" width="220px" fill="#323232" font-weight="400" align="middle" lineHeight="125%" anchor="middle" family="微软雅黑" size="18px" weight="400" font-style="" opacity="1" y="0.25" transform="rotate(0)"><tspan id="SvgjsTspan1315" dy="22.5" x="120"><tspan id="SvgjsTspan1316" style=""> Invite other user to </tspan></tspan><tspan id="SvgjsTspan1317" dy="22.5" x="120"><tspan id="SvgjsTspan1318" style="">manage the match </tspan></tspan></text></g></g><g id="SvgjsG1319"><path id="SvgjsPath1320" d="M1047.822401632267 585.1296902862464L1159.368072015078 494.1084255693796" stroke="#323232" stroke-width="2" fill="none"></path></g><g id="SvgjsG1321"><path id="SvgjsPath1322" d="M1043.7432410177607 516.2839142560259L1159.1615183438698 493.66848758636405" stroke="#323232" stroke-width="2" fill="none"></path></g><g id="SvgjsG1323"><path id="SvgjsPath1324" d="M1041.199244169282 660.4474402497065L1159.5626580494911 494.2906756059195" stroke="#323232" stroke-width="2" fill="none"></path></g><g id="SvgjsG1325"><path id="SvgjsPath1326" d="M1054.7796325458617 735.8448249028048L1159.7441769779477 494.393290952821" stroke="#323232" stroke-width="2" fill="none"></path></g><g id="SvgjsG1327" transform="translate(814.9047593616303,771.2857263655892)"><path id="SvgjsPath1328" d="M 0 27C 0 -9 239.47619301932195 -9 239.47619301932195 27C 239.47619301932195 63 0 63 0 27Z" stroke="rgba(33,41,48,1)" stroke-width="2" fill-opacity="1" fill="#ffffff"></path><g id="SvgjsG1329"><text id="SvgjsText1330" font-family="微软雅黑" text-anchor="middle" font-size="18px" width="220px" fill="#323232" font-weight="400" align="middle" lineHeight="125%" anchor="middle" family="微软雅黑" size="18px" weight="400" font-style="" opacity="1" y="11.25" transform="rotate(0)"><tspan id="SvgjsTspan1331" dy="22.5" x="120"><tspan id="SvgjsTspan1332" style=""> Edit event information</tspan></tspan></text></g></g><g id="SvgjsG1333" transform="translate(827.4151783330102,1023.5476316724507)"><path id="SvgjsPath1334" d="M 0 31.41667215880898C 0 -10.472224052936326 240.2752991290315 -10.472224052936326 240.2752991290315 31.41667215880898C 240.2752991290315 73.30556837055428 0 73.30556837055428 0 31.41667215880898Z" stroke="rgba(33,41,48,1)" stroke-width="2" fill-opacity="1" fill="#ffffff"></path><g id="SvgjsG1335"><text id="SvgjsText1336" font-family="微软雅黑" text-anchor="middle" font-size="18px" width="221px" fill="#323232" font-weight="400" align="middle" lineHeight="125%" anchor="middle" family="微软雅黑" size="18px" weight="400" font-style="" opacity="1" y="4.666672158808979" transform="rotate(0)"><tspan id="SvgjsTspan1337" dy="22.5" x="120.5"><tspan id="SvgjsTspan1338" style=""> Invite other user to </tspan></tspan><tspan id="SvgjsTspan1339" dy="22.5" x="120.5"><tspan id="SvgjsTspan1340" style="">manage the event </tspan></tspan></text></g></g><g id="SvgjsG1341" transform="translate(805.8809485662548,832.8095377967476)"><path id="SvgjsPath1342" d="M 0 27C 0 -9 257.5238146100728 -9 257.5238146100728 27C 257.5238146100728 63 0 63 0 27Z" stroke="rgba(33,41,48,1)" stroke-width="2" fill-opacity="1" fill="#ffffff"></path><g id="SvgjsG1343"><text id="SvgjsText1344" font-family="微软雅黑" text-anchor="middle" font-size="18px" width="238px" fill="#323232" font-weight="400" align="middle" lineHeight="125%" anchor="middle" family="微软雅黑" size="18px" weight="400" font-style="" opacity="1" y="0.25" transform="rotate(0)"><tspan id="SvgjsTspan1345" dy="22.5" x="129"><tspan id="SvgjsTspan1346" style=""> Invite team to join the </tspan></tspan><tspan id="SvgjsTspan1347" dy="22.5" x="129"><tspan id="SvgjsTspan1348" style="">event</tspan></tspan></text></g></g><g id="SvgjsG1349" transform="translate(814.9047593616303,930.0476289476667)"><path id="SvgjsPath1350" d="M 0 42.01339424507955C 0 -14.004464748359851 265.29613707179124 -14.004464748359851 265.29613707179124 42.01339424507955C 265.29613707179124 98.03125323851896 0 98.03125323851896 0 42.01339424507955Z" stroke="rgba(33,41,48,1)" stroke-width="2" fill-opacity="1" fill="#ffffff"></path><g id="SvgjsG1351"><text id="SvgjsText1352" font-family="微软雅黑" text-anchor="middle" font-size="18px" width="246px" fill="#323232" font-weight="400" align="middle" lineHeight="125%" anchor="middle" family="微软雅黑" size="18px" weight="400" font-style="" opacity="1" y="3.763394245079553" transform="rotate(0)"><tspan id="SvgjsTspan1353" dy="22.5" x="133"><tspan id="SvgjsTspan1354" style=""> Accept/Refuse teams' </tspan></tspan><tspan id="SvgjsTspan1355" dy="22.5" x="133"><tspan id="SvgjsTspan1356" style="">application to participant in </tspan></tspan><tspan id="SvgjsTspan1357" dy="22.5" x="133"><tspan id="SvgjsTspan1358" style="">the event</tspan></tspan></text></g></g><g id="SvgjsG1359" transform="translate(785.4970142727807,158.58334663936074)"><path id="SvgjsPath1360" d="M 0 37.047617412748764C 0 -12.349205804249587 280.5029882703511 -12.349205804249587 280.5029882703511 37.047617412748764C 280.5029882703511 86.44444062974712 0 86.44444062974712 0 37.047617412748764Z" stroke="rgba(33,41,48,1)" stroke-width="2" fill-opacity="1" fill="#ffffff"></path><g id="SvgjsG1361"><text id="SvgjsText1362" font-family="微软雅黑" text-anchor="middle" font-size="18px" width="261px" fill="#323232" font-weight="400" align="middle" lineHeight="125%" anchor="middle" family="微软雅黑" size="18px" weight="400" font-style="" opacity="1" y="10.297617412748764" transform="rotate(0)"><tspan id="SvgjsTspan1363" dy="22.5" x="140.5"><tspan id="SvgjsTspan1364" style=""> Accept/Refuse players' </tspan></tspan><tspan id="SvgjsTspan1365" dy="22.5" x="140.5"><tspan id="SvgjsTspan1366" style="">application to join the team</tspan></tspan></text></g></g><g id="SvgjsG1367"><path id="SvgjsPath1368" d="M1066.8143697573125 196.21131398143385L1155.042775642962 259.08632690986843" stroke="#323232" stroke-width="2" fill="none"></path></g><g id="SvgjsG1369"><path id="SvgjsPath1370" d="M1055.0214910477391 799.0536522841198L1146.883270857023 909.1844613916791" stroke="#323232" stroke-width="2" fill="none"></path></g><g id="SvgjsG1371"><path id="SvgjsPath1372" d="M1080.9358935127273 971.3829529210097L1146.7888124445046 910.6304575819462" stroke="#323232" stroke-width="2" fill="none"></path></g><g id="SvgjsG1373"><path id="SvgjsPath1374" d="M1064.263732801702 860.3215643416498L1146.6648398984357 909.4403607653074" stroke="#323232" stroke-width="2" fill="none"></path></g><g id="SvgjsG1375"><path id="SvgjsPath1376" d="M1068.1727522697772 1054.0882838487114L1147.0415347160745 910.828407292758" stroke="#323232" stroke-width="2" fill="none"></path></g><g id="SvgjsG1377" transform="translate(548.4776798429948,867.0952425457182)"><path id="SvgjsPath1378" d="M 0 42.85714476449152C 0 -14.285714921497174 291.59522839954855 -14.285714921497174 291.59522839954855 42.85714476449152C 291.59522839954855 100.00000445048022 0 100.00000445048022 0 42.85714476449152Z" stroke="rgba(33,41,48,1)" stroke-width="2" fill-opacity="1" fill="#ffffff"></path><g id="SvgjsG1379"><text id="SvgjsText1380" font-family="微软雅黑" text-anchor="middle" font-size="18px" width="272px" fill="#323232" font-weight="400" align="middle" lineHeight="125%" anchor="middle" family="微软雅黑" size="18px" weight="400" font-style="" opacity="1" y="16.107144764491522" transform="rotate(0)"><tspan id="SvgjsTspan1381" dy="22.5" x="146"><tspan id="SvgjsTspan1382" style=""> Create the matches </tspan></tspan><tspan id="SvgjsTspan1383" dy="22.5" x="146"><tspan id="SvgjsTspan1384" style="">and schedules within the event</tspan></tspan></text></g></g><g id="SvgjsG1385" transform="translate(581.4181511856264,713.3407783962432)"><path id="SvgjsPath1386" d="M 0 39.84375C 0 -13.28125 208.6934452283947 -13.28125 208.6934452283947 39.84375C 208.6934452283947 92.96875 0 92.96875 0 39.84375Z" stroke="rgba(33,41,48,1)" stroke-width="2" fill-opacity="1" fill="#ffffff"></path><g id="SvgjsG1387"><text id="SvgjsText1388" font-family="微软雅黑" text-anchor="middle" font-size="18px" width="189px" fill="#323232" font-weight="400" align="middle" lineHeight="125%" anchor="middle" family="微软雅黑" size="18px" weight="400" font-style="" opacity="1" y="13.09375" transform="rotate(0)"><tspan id="SvgjsTspan1389" dy="22.5" x="104.5"><tspan id="SvgjsTspan1390" style=""> Invite referee to </tspan></tspan><tspan id="SvgjsTspan1391" dy="22.5" x="104.5"><tspan id="SvgjsTspan1392" style="">officiate the match</tspan></tspan></text></g></g><g id="SvgjsG1393" transform="translate(581.4181511856264,1028.4166752043225)"><path id="SvgjsPath1394" d="M 0 33.52976462954564C 0 -11.176588209848546 225.71428571428532 -11.176588209848546 225.71428571428532 33.52976462954564C 225.71428571428532 78.23611746893982 0 78.23611746893982 0 33.52976462954564Z" stroke="rgba(33,41,48,1)" stroke-width="2" fill-opacity="1" fill="#ffffff"></path><g id="SvgjsG1395"><text id="SvgjsText1396" font-family="微软雅黑" text-anchor="middle" font-size="18px" width="206px" fill="#323232" font-weight="400" align="middle" lineHeight="125%" anchor="middle" family="微软雅黑" size="18px" weight="400" font-style="" opacity="1" y="6.779764629545639" transform="rotate(0)"><tspan id="SvgjsTspan1397" dy="22.5" x="113"><tspan id="SvgjsTspan1398" style=""> Broadcast live and </tspan></tspan><tspan id="SvgjsTspan1399" dy="22.5" x="113"><tspan id="SvgjsTspan1400" style="">replay</tspan></tspan></text></g></g><g id="SvgjsG1401"><path id="SvgjsPath1402" d="M685.8790244413691 794.0217418485325L693.8643517332051 863.5187741174764" stroke-dasharray="3,3" stroke="#323232" stroke-width="2" fill="none" marker-end="url(#SvgjsMarker1403)"></path><rect id="SvgjsRect1405" width="116.4" height="25" x="631.7732909688038" y="817.1545171344868" fill="#ffffff"></rect><text id="SvgjsText1406" font-family="微软雅黑" text-anchor="middle" font-size="18px" width="116.4px" fill="#323232" font-weight="400" align="top" lineHeight="23px" anchor="middle" family="微软雅黑" size="18px" weight="400" font-style="" opacity="1" y="812.9045171344868" transform="rotate(0)"><tspan id="SvgjsTspan1407" dy="22.5" x="689.7732909688038"><tspan id="SvgjsTspan1408" style="">&lt;&lt;include&gt;&gt;</tspan></tspan></text></g><g id="SvgjsG1409"><path id="SvgjsPath1410" d="M694.275294042769 1027.4166752043225L694.2752940427689 956.4095320747012" stroke-dasharray="3,3" stroke="#323232" stroke-width="2" fill="none" marker-end="url(#SvgjsMarker1411)"></path><rect id="SvgjsRect1413" width="112.4" height="25" x="638.075294042769" y="978.5096302956431" fill="#ffffff"></rect><text id="SvgjsText1414" font-family="微软雅黑" text-anchor="middle" font-size="18px" width="112.4px" fill="#323232" font-weight="400" align="top" lineHeight="23px" anchor="middle" family="微软雅黑" size="18px" weight="400" font-style="" opacity="1" y="974.2596302956431" transform="rotate(0)"><tspan id="SvgjsTspan1415" dy="22.5" x="694.075294042769"><tspan id="SvgjsTspan1416" style="">&lt;&lt;extend&gt;&gt;</tspan></tspan></text></g><g id="SvgjsG1417"><path id="SvgjsPath1418" d="M841.0729082425433 909.9523873102097L1146.5238095238099 909.9523873102097" stroke="#323232" stroke-width="2" fill="none"></path></g></svg>