<?xml version="1.0" standalone="no"?><!DOCTYPE svg PUBLIC "-//W3C//DTD SVG 1.1//EN" "http://www.w3.org/Graphics/SVG/1.1/DTD/svg11.dtd"><svg t="1708945967315" class="icon" viewBox="0 0 1197 1024" version="1.1" xmlns="http://www.w3.org/2000/svg" p-id="6246" xmlns:xlink="http://www.w3.org/1999/xlink" width="233.7890625" height="200"><path d="M659.00088891 963.4702222H400.95288891c-52.90666667 0-96.02844445-43.12177778-96.02844444-96.02844444V373.07733331c0-11.83288889 9.67111111-21.504 21.504-21.504s21.504 9.67111111 21.504 21.504v494.36444445c0 29.24088889 23.77955555 53.02044445 53.02044444 53.02044444h257.93422222c11.83288889 0 21.504 9.67111111 21.504 21.504 0.11377778 11.94666667-9.55733333 21.504-21.39022222 21.504zM831.6017778 963.4702222c-11.83288889 0-21.504-9.67111111-21.504-21.504s9.67111111-21.504 21.504-21.504c29.24088889 0 53.02044445-23.77955555 53.02044444-53.02044444V373.07733331c0-11.83288889 9.67111111-21.504 21.504-21.504s21.504 9.67111111 21.504 21.504v494.36444445c0 53.02044445-43.008 96.02844445-96.02844444 96.02844444z" fill="#E53439" p-id="6247"></path><path d="M831.6017778 963.4702222h-32.99555556c-11.83288889 0-21.504-9.67111111-21.504-21.504s9.67111111-21.504 21.504-21.504h32.99555556c29.24088889 0 53.02044445-23.77955555 53.02044444-53.02044444V545.10933331c0-11.83288889 9.67111111-21.504 21.504-21.504s21.504 9.67111111 21.504 21.504V867.55555553c0 52.90666667-43.008 95.91466667-96.02844444 95.91466667zM670.37866669 963.4702222H476.2737778c-11.83288889 0-21.504-9.67111111-21.504-21.504s9.67111111-21.504 21.504-21.504h194.21866667c29.24088889 0 53.02044445-23.77955555 53.02044444-53.02044444v-43.69066667c0-11.83288889 9.67111111-21.504 21.504-21.504 11.83288889 0 21.504 9.67111111 21.504 21.504v43.69066667c-0.11377778 53.02044445-43.12177778 96.02844445-96.14222222 96.02844444zM205.14133335 533.16266665c-13.76711111 0-27.53422222-5.23377778-38.00177778-15.70133334l-83.62666666-83.62666666c-20.93511111-20.93511111-20.93511111-55.06844445 0-76.00355556L304.81066669 136.53333331c8.41955555-8.41955555 21.95911111-8.41955555 30.37866666 0s8.41955555 21.95911111 0 30.37866667L114.00533335 388.20977776c-4.20977778 4.20977778-4.20977778 11.03644445 0 15.24622222l83.62666667 83.62666667c4.20977778 4.20977778 11.03644445 4.20977778 15.24622222 0l97.84888889-97.84888889c8.41955555-8.41955555 21.95911111-8.41955555 30.37866667 0s8.41955555 21.95911111 0 30.37866667l-97.84888889 97.84888888c-10.58133333 10.46755555-24.34844445 15.70133333-38.11555556 15.70133334zM1026.38933335 533.16266665c-13.76711111 0-27.53422222-5.23377778-38.00177778-15.70133334l-97.39377777-97.39377778c-8.41955555-8.41955555-8.41955555-21.95911111 0-30.37866666 8.41955555-8.41955555 21.95911111-8.41955555 30.37866667 0l97.39377777 97.39377778c4.20977778 4.20977778 11.03644445 4.20977778 15.24622223 0l83.62666666-83.62666667c4.20977778-4.20977778 4.20977778-11.03644445 0-15.24622222L901.80266669 172.48711109c-8.41955555-8.41955555-8.41955555-21.95911111 0-30.37866666s21.95911111-8.41955555 30.37866666 0L1147.90400002 357.83111109c20.93511111 20.93511111 20.93511111 55.06844445 0 76.00355556l-83.51288889 83.62666666c-10.46755555 10.46755555-24.23466667 15.70133333-38.00177778 15.70133334z" fill="#E53439" p-id="6248"></path><path d="M916.93511113 178.85866665c-5.46133333 0-11.03644445-2.048-15.24622222-6.25777778-21.16266667-21.16266667-73.84177778-25.94133333-92.27377778-25.94133334H486.96888891c-11.83288889 0-21.504-9.67111111-21.504-21.504s9.67111111-21.504 21.504-21.504h322.44622222c8.64711111 0 85.21955555 1.13777778 122.65244444 38.57066667 8.41955555 8.41955555 8.41955555 21.95911111 0 30.37866667-4.20977778 4.20977778-9.67111111 6.25777778-15.13244444 6.25777778z" fill="#E53439" p-id="6249"></path><path d="M315.05066669 178.85866665c-5.46133333 0-11.03644445-2.048-15.24622222-6.25777778-8.41955555-8.41955555-8.41955555-21.95911111 0-30.37866667 37.43288889-37.43288889 114.11911111-38.57066667 122.65244444-38.57066667h354.64533333c11.83288889 0 21.504 9.67111111 21.504 21.504s-9.67111111 21.504-21.504 21.504H422.45688891c-18.432 0-71.11111111 4.77866667-92.27377778 25.94133334-4.20977778 4.20977778-9.67111111 6.25777778-15.13244444 6.25777778z" fill="#E53439" p-id="6250"></path><path d="M615.99288891 254.17955553c-72.81777778 0-135.05422222-51.88266667-148.02488889-123.44888888-2.16177778-11.71911111 5.68888889-22.86933333 17.29422222-25.03111112s22.86933333 5.57511111 25.03111111 17.29422223c9.216 51.08622222 53.70311111 88.17777778 105.69955556 88.17777777 50.176 0 94.43555555-35.61244445 105.01688889-84.53688888 2.50311111-11.60533333 13.99466667-19.00088889 25.6-16.49777778s19.00088889 13.99466667 16.49777777 25.6C748.08888891 204.34488887 686.30755557 254.17955553 615.99288891 254.17955553z" fill="#E53439" p-id="6251"></path></svg>